<mxfile host="Electron" agent="Mozilla/5.0 (Windows NT 10.0; Win64; x64) AppleWebKit/537.36 (KHTML, like Gecko) draw.io/24.7.17 Chrome/128.0.6613.36 Electron/32.0.1 Safari/537.36" version="24.7.17">
  <diagram name="Page-1" id="ppz_qpOuHYV9t85BLrq9">
    <mxGraphModel dx="2381" dy="2407" grid="1" gridSize="10" guides="1" tooltips="1" connect="1" arrows="1" fold="1" page="1" pageScale="1" pageWidth="827" pageHeight="1169" math="0" shadow="0">
      <root>
        <mxCell id="0" />
        <mxCell id="1" parent="0" />
        <mxCell id="4tWSjrluWotzXOF6bHqo-24" value="" style="rounded=1;whiteSpace=wrap;html=1;fontSize=16;dashed=1;strokeColor=#7ea6e0;arcSize=2;fontFamily=Helvetica;" parent="1" vertex="1">
          <mxGeometry x="-127.26" y="-100" width="587.26" height="630" as="geometry" />
        </mxCell>
        <mxCell id="4tWSjrluWotzXOF6bHqo-25" value="avd-playground-net&lt;br&gt;10.30.0.0/16&lt;div&gt;DNS 10.30.2.4, 10.30.2.5&lt;/div&gt;" style="aspect=fixed;html=1;points=[];align=left;image;fontSize=12;image=img/lib/azure2/networking/Virtual_Networks.svg;fontColor=#333333;fontFamily=Helvetica;" parent="1" vertex="1">
          <mxGeometry x="-120.25999999999999" y="-95" width="23" height="13.73" as="geometry" />
        </mxCell>
        <mxCell id="4tWSjrluWotzXOF6bHqo-26" value="" style="group;fontFamily=Helvetica;" parent="1" vertex="1" connectable="0">
          <mxGeometry x="550" y="-260" width="142" height="133" as="geometry" />
        </mxCell>
        <mxCell id="4tWSjrluWotzXOF6bHqo-27" value="DefaultSubnet&lt;br&gt;10.12.1.0/24" style="rounded=1;whiteSpace=wrap;html=1;fontSize=12;arcSize=3;strokeColor=none;fillColor=#E6E6E6;fontColor=#333333;align=left;verticalAlign=top;fontFamily=Helvetica;" parent="4tWSjrluWotzXOF6bHqo-26" vertex="1">
          <mxGeometry width="142" height="133" as="geometry" />
        </mxCell>
        <mxCell id="4tWSjrluWotzXOF6bHqo-28" value="hub-vm-01&lt;br&gt;10.12.1.4" style="image;sketch=0;aspect=fixed;html=1;points=[];align=center;fontSize=12;image=img/lib/mscae/VirtualMachineWindows.svg;fontFamily=Helvetica;" parent="4tWSjrluWotzXOF6bHqo-26" vertex="1">
          <mxGeometry x="46" y="40" width="50" height="46" as="geometry" />
        </mxCell>
        <mxCell id="4tWSjrluWotzXOF6bHqo-29" value="AzureBastionSubnet&lt;br&gt;10.30.1.0/24" style="rounded=1;whiteSpace=wrap;html=1;fontSize=12;arcSize=3;strokeColor=none;fillColor=#E6E6E6;fontColor=#333333;align=left;verticalAlign=top;fontFamily=Helvetica;" parent="1" vertex="1">
          <mxGeometry x="-117.25999999999999" y="-28" width="142" height="133" as="geometry" />
        </mxCell>
        <mxCell id="4tWSjrluWotzXOF6bHqo-33" value="lab-bastion" style="image;aspect=fixed;html=1;points=[];align=center;fontSize=12;image=img/lib/azure2/networking/Bastions.svg;fontColor=#333333;fontFamily=Helvetica;" parent="1" vertex="1">
          <mxGeometry x="-71.25999999999999" y="22" width="35.82" height="42" as="geometry" />
        </mxCell>
        <mxCell id="4tWSjrluWotzXOF6bHqo-34" value="avd-bastion-ip" style="image;aspect=fixed;html=1;points=[];align=center;fontSize=12;image=img/lib/azure2/networking/Public_IP_Addresses.svg;fontFamily=Helvetica;" parent="1" vertex="1">
          <mxGeometry x="-197.26" y="28" width="37.5" height="30" as="geometry" />
        </mxCell>
        <mxCell id="4tWSjrluWotzXOF6bHqo-36" value="peering" style="endArrow=classic;startArrow=classic;html=1;rounded=0;fontSize=12;startSize=8;endSize=8;strokeColor=#7EA6E0;fontFamily=Helvetica;" parent="1" edge="1">
          <mxGeometry width="50" height="50" relative="1" as="geometry">
            <mxPoint x="-88.63" y="-120" as="sourcePoint" />
            <mxPoint x="21.370000000000005" y="-120" as="targetPoint" />
            <mxPoint as="offset" />
          </mxGeometry>
        </mxCell>
        <mxCell id="4tWSjrluWotzXOF6bHqo-38" value="" style="endArrow=none;dashed=1;html=1;rounded=0;fontSize=12;startSize=8;endSize=8;strokeColor=#808080;fontFamily=Helvetica;" parent="1" edge="1">
          <mxGeometry width="50" height="50" relative="1" as="geometry">
            <mxPoint x="-160.26" y="42.65999999999997" as="sourcePoint" />
            <mxPoint x="-71.25999999999999" y="43.15999999999997" as="targetPoint" />
          </mxGeometry>
        </mxCell>
        <mxCell id="4tWSjrluWotzXOF6bHqo-47" value="&lt;b&gt;Virtual Machines account name&lt;/b&gt;: nicola&lt;br style=&quot;font-size: 12px;&quot;&gt;&lt;b&gt;Virtual machines password&lt;/b&gt;: password.123" style="text;strokeColor=none;fillColor=none;html=1;align=left;verticalAlign=middle;whiteSpace=wrap;rounded=0;fontSize=12;fontFamily=Helvetica;" parent="1" vertex="1">
          <mxGeometry x="-197.26" y="-170" width="250" height="30" as="geometry" />
        </mxCell>
        <mxCell id="4tWSjrluWotzXOF6bHqo-48" value="dc-subnet&lt;br&gt;10.30.2.0/24" style="rounded=1;whiteSpace=wrap;html=1;fontSize=12;arcSize=3;strokeColor=none;fillColor=#E6E6E6;align=left;verticalAlign=top;fontColor=#333333;fontFamily=Helvetica;" parent="1" vertex="1">
          <mxGeometry x="-117.26" y="110" width="537.26" height="133" as="geometry" />
        </mxCell>
        <mxCell id="4tWSjrluWotzXOF6bHqo-49" value="rome-hosts-subnet&lt;br&gt;10.30.3.0/24" style="rounded=1;whiteSpace=wrap;html=1;fontSize=12;arcSize=3;strokeColor=none;fillColor=#E6E6E6;align=left;verticalAlign=top;fontColor=#333333;fontFamily=Helvetica;" parent="1" vertex="1">
          <mxGeometry x="-117.26" y="250" width="537.26" height="133" as="geometry" />
        </mxCell>
        <mxCell id="4tWSjrluWotzXOF6bHqo-50" value="milan-hosts-subnet&lt;br&gt;10.30.3.0/24" style="rounded=1;whiteSpace=wrap;html=1;fontSize=12;arcSize=3;strokeColor=none;fillColor=#E6E6E6;align=left;verticalAlign=top;fontColor=#333333;fontFamily=Helvetica;" parent="1" vertex="1">
          <mxGeometry x="-117.26" y="390" width="537.26" height="133" as="geometry" />
        </mxCell>
        <mxCell id="4tWSjrluWotzXOF6bHqo-51" value="italy north" style="shadow=0;dashed=0;html=1;strokeColor=none;fillColor=#4495D1;labelPosition=right;verticalLabelPosition=middle;verticalAlign=middle;align=left;outlineConnect=0;shape=mxgraph.veeam.globe;fontSize=12;fontColor=#808080;direction=south;rotation=0;fontFamily=Helvetica;" parent="1" vertex="1">
          <mxGeometry x="380" y="-79.99999999999997" width="13" height="13.5" as="geometry" />
        </mxCell>
        <mxCell id="4tWSjrluWotzXOF6bHqo-53" value="DC1&lt;br&gt;10.30.2.4" style="image;sketch=0;aspect=fixed;html=1;points=[];align=center;fontSize=12;image=img/lib/mscae/VirtualMachineWindows.svg;fontFamily=Helvetica;" parent="1" vertex="1">
          <mxGeometry x="130" y="140" width="50" height="46" as="geometry" />
        </mxCell>
        <mxCell id="4tWSjrluWotzXOF6bHqo-54" value="avd-domain-services&lt;div&gt;dns domain name: &lt;b&gt;demo.nicold&lt;/b&gt;&lt;/div&gt;" style="image;aspect=fixed;html=1;points=[];align=center;fontSize=12;image=img/lib/azure2/identity/Entra_Domain_Services.svg;" parent="1" vertex="1">
          <mxGeometry x="180" y="17" width="52" height="52" as="geometry" />
        </mxCell>
        <mxCell id="4tWSjrluWotzXOF6bHqo-55" value="DC2&lt;br&gt;10.30.2.5" style="image;sketch=0;aspect=fixed;html=1;points=[];align=center;fontSize=12;image=img/lib/mscae/VirtualMachineWindows.svg;fontFamily=Helvetica;" parent="1" vertex="1">
          <mxGeometry x="232" y="140" width="50" height="46" as="geometry" />
        </mxCell>
        <mxCell id="4tWSjrluWotzXOF6bHqo-56" value="dc-subnet-nsg" style="image;aspect=fixed;html=1;points=[];align=left;fontSize=12;image=img/lib/azure2/networking/Network_Security_Groups.svg;labelPosition=right;verticalLabelPosition=middle;verticalAlign=middle;" parent="1" vertex="1">
          <mxGeometry x="320" y="216" width="18.94" height="23" as="geometry" />
        </mxCell>
        <mxCell id="4tWSjrluWotzXOF6bHqo-58" value="" style="group;fillColor=#f1f3f4;strokeColor=#FFCE9F;" parent="1" vertex="1" connectable="0">
          <mxGeometry x="-190" y="610" width="740" height="120" as="geometry" />
        </mxCell>
        <mxCell id="4tWSjrluWotzXOF6bHqo-59" value="" style="shape=ext;double=1;rounded=1;whiteSpace=wrap;html=1;strokeColor=none;fontFamily=Tahoma;fillColor=#ffe6cc;arcSize=3;align=center;verticalAlign=top;movable=1;resizable=1;rotatable=1;deletable=1;editable=1;locked=0;connectable=1;" parent="4tWSjrluWotzXOF6bHqo-58" vertex="1">
          <mxGeometry width="740" height="120" as="geometry" />
        </mxCell>
        <mxCell id="4tWSjrluWotzXOF6bHqo-79" value="dc-subnet-nsg" style="image;aspect=fixed;html=1;points=[];align=left;fontSize=12;image=img/lib/azure2/networking/Network_Security_Groups.svg;labelPosition=right;verticalLabelPosition=middle;verticalAlign=middle;fontColor=#000000;" parent="4tWSjrluWotzXOF6bHqo-58" vertex="1">
          <mxGeometry x="320" y="6.47" width="15.7" height="19.06" as="geometry" />
        </mxCell>
        <mxCell id="4tWSjrluWotzXOF6bHqo-60" value="inbound security rule" style="shape=table;startSize=20;container=1;collapsible=0;childLayout=tableLayout;fillColor=#E6E6E6;fontStyle=1" parent="4tWSjrluWotzXOF6bHqo-58" vertex="1">
          <mxGeometry x="11.980000000000018" y="30" width="716.0377358490566" height="82" as="geometry" />
        </mxCell>
        <mxCell id="4tWSjrluWotzXOF6bHqo-61" value="" style="shape=tableRow;horizontal=0;startSize=0;swimlaneHead=0;swimlaneBody=0;strokeColor=inherit;top=0;left=0;bottom=0;right=0;collapsible=0;dropTarget=0;fillColor=none;points=[[0,0.5],[1,0.5]];portConstraint=eastwest;" parent="4tWSjrluWotzXOF6bHqo-60" vertex="1">
          <mxGeometry y="20" width="716.0377358490566" height="20" as="geometry" />
        </mxCell>
        <mxCell id="4tWSjrluWotzXOF6bHqo-125" value="name" style="shape=partialRectangle;html=1;whiteSpace=wrap;connectable=0;strokeColor=#666666;overflow=hidden;fillColor=#f5f5f5;top=0;left=0;bottom=0;right=0;pointerEvents=1;fontColor=#333333;fontStyle=1" parent="4tWSjrluWotzXOF6bHqo-61" vertex="1">
          <mxGeometry width="118" height="20" as="geometry">
            <mxRectangle width="118" height="20" as="alternateBounds" />
          </mxGeometry>
        </mxCell>
        <mxCell id="4tWSjrluWotzXOF6bHqo-62" value="source port/service-tag" style="shape=partialRectangle;html=1;whiteSpace=wrap;connectable=0;strokeColor=#666666;overflow=hidden;fillColor=#f5f5f5;top=0;left=0;bottom=0;right=0;pointerEvents=1;fontColor=#333333;fontStyle=1" parent="4tWSjrluWotzXOF6bHqo-61" vertex="1">
          <mxGeometry x="118" width="210" height="20" as="geometry">
            <mxRectangle width="210" height="20" as="alternateBounds" />
          </mxGeometry>
        </mxCell>
        <mxCell id="4tWSjrluWotzXOF6bHqo-63" value="destination port/service tag" style="shape=partialRectangle;html=1;whiteSpace=wrap;connectable=0;strokeColor=#666666;overflow=hidden;fillColor=#f5f5f5;top=0;left=0;bottom=0;right=0;pointerEvents=1;fontColor=#333333;fontStyle=1" parent="4tWSjrluWotzXOF6bHqo-61" vertex="1">
          <mxGeometry x="328" width="180" height="20" as="geometry">
            <mxRectangle width="180" height="20" as="alternateBounds" />
          </mxGeometry>
        </mxCell>
        <mxCell id="4tWSjrluWotzXOF6bHqo-64" value="protocol" style="shape=partialRectangle;html=1;whiteSpace=wrap;connectable=0;strokeColor=#666666;overflow=hidden;fillColor=#f5f5f5;top=0;left=0;bottom=0;right=0;pointerEvents=1;fontColor=#333333;fontStyle=1" parent="4tWSjrluWotzXOF6bHqo-61" vertex="1">
          <mxGeometry x="508" width="50" height="20" as="geometry">
            <mxRectangle width="50" height="20" as="alternateBounds" />
          </mxGeometry>
        </mxCell>
        <mxCell id="4tWSjrluWotzXOF6bHqo-65" value="port" style="shape=partialRectangle;html=1;whiteSpace=wrap;connectable=0;strokeColor=#666666;overflow=hidden;fillColor=#f5f5f5;top=0;left=0;bottom=0;right=0;pointerEvents=1;fontColor=#333333;fontStyle=1" parent="4tWSjrluWotzXOF6bHqo-61" vertex="1">
          <mxGeometry x="558" width="60" height="20" as="geometry">
            <mxRectangle width="60" height="20" as="alternateBounds" />
          </mxGeometry>
        </mxCell>
        <mxCell id="4tWSjrluWotzXOF6bHqo-66" value="action" style="shape=partialRectangle;html=1;whiteSpace=wrap;connectable=0;strokeColor=#666666;overflow=hidden;fillColor=#f5f5f5;top=0;left=0;bottom=0;right=0;pointerEvents=1;fontColor=#333333;fontStyle=1" parent="4tWSjrluWotzXOF6bHqo-61" vertex="1">
          <mxGeometry x="618" width="40" height="20" as="geometry">
            <mxRectangle width="40" height="20" as="alternateBounds" />
          </mxGeometry>
        </mxCell>
        <mxCell id="4tWSjrluWotzXOF6bHqo-111" value="priority" style="shape=partialRectangle;html=1;whiteSpace=wrap;connectable=0;strokeColor=#666666;overflow=hidden;fillColor=#f5f5f5;top=0;left=0;bottom=0;right=0;pointerEvents=1;fontColor=#333333;fontStyle=1" parent="4tWSjrluWotzXOF6bHqo-61" vertex="1">
          <mxGeometry x="658" width="58" height="20" as="geometry">
            <mxRectangle width="58" height="20" as="alternateBounds" />
          </mxGeometry>
        </mxCell>
        <mxCell id="4tWSjrluWotzXOF6bHqo-67" value="" style="shape=tableRow;horizontal=0;startSize=0;swimlaneHead=0;swimlaneBody=0;strokeColor=inherit;top=0;left=0;bottom=0;right=0;collapsible=0;dropTarget=0;fillColor=none;points=[[0,0.5],[1,0.5]];portConstraint=eastwest;" parent="4tWSjrluWotzXOF6bHqo-60" vertex="1">
          <mxGeometry y="40" width="716.0377358490566" height="20" as="geometry" />
        </mxCell>
        <mxCell id="4tWSjrluWotzXOF6bHqo-126" value="AllowRD" style="shape=partialRectangle;html=1;whiteSpace=wrap;connectable=0;strokeColor=#666666;overflow=hidden;fillColor=#f5f5f5;top=0;left=0;bottom=0;right=0;pointerEvents=1;fontColor=#333333;" parent="4tWSjrluWotzXOF6bHqo-67" vertex="1">
          <mxGeometry width="118" height="20" as="geometry">
            <mxRectangle width="118" height="20" as="alternateBounds" />
          </mxGeometry>
        </mxCell>
        <mxCell id="4tWSjrluWotzXOF6bHqo-68" value="CorpNetSaw" style="shape=partialRectangle;html=1;whiteSpace=wrap;connectable=0;strokeColor=#666666;overflow=hidden;fillColor=#f5f5f5;top=0;left=0;bottom=0;right=0;pointerEvents=1;fontColor=#333333;" parent="4tWSjrluWotzXOF6bHqo-67" vertex="1">
          <mxGeometry x="118" width="210" height="20" as="geometry">
            <mxRectangle width="210" height="20" as="alternateBounds" />
          </mxGeometry>
        </mxCell>
        <mxCell id="4tWSjrluWotzXOF6bHqo-69" value="Any" style="shape=partialRectangle;html=1;whiteSpace=wrap;connectable=0;strokeColor=#666666;overflow=hidden;fillColor=#f5f5f5;top=0;left=0;bottom=0;right=0;pointerEvents=1;fontColor=#333333;" parent="4tWSjrluWotzXOF6bHqo-67" vertex="1">
          <mxGeometry x="328" width="180" height="20" as="geometry">
            <mxRectangle width="180" height="20" as="alternateBounds" />
          </mxGeometry>
        </mxCell>
        <mxCell id="4tWSjrluWotzXOF6bHqo-70" value="TCP" style="shape=partialRectangle;html=1;whiteSpace=wrap;connectable=0;strokeColor=#666666;overflow=hidden;fillColor=#f5f5f5;top=0;left=0;bottom=0;right=0;pointerEvents=1;fontColor=#333333;" parent="4tWSjrluWotzXOF6bHqo-67" vertex="1">
          <mxGeometry x="508" width="50" height="20" as="geometry">
            <mxRectangle width="50" height="20" as="alternateBounds" />
          </mxGeometry>
        </mxCell>
        <mxCell id="4tWSjrluWotzXOF6bHqo-71" value="3389" style="shape=partialRectangle;html=1;whiteSpace=wrap;connectable=0;strokeColor=#666666;overflow=hidden;fillColor=#f5f5f5;top=0;left=0;bottom=0;right=0;pointerEvents=1;fontColor=#333333;" parent="4tWSjrluWotzXOF6bHqo-67" vertex="1">
          <mxGeometry x="558" width="60" height="20" as="geometry">
            <mxRectangle width="60" height="20" as="alternateBounds" />
          </mxGeometry>
        </mxCell>
        <mxCell id="4tWSjrluWotzXOF6bHqo-72" value="allow" style="shape=partialRectangle;html=1;whiteSpace=wrap;connectable=0;strokeColor=#666666;overflow=hidden;fillColor=#f5f5f5;top=0;left=0;bottom=0;right=0;pointerEvents=1;fontColor=#333333;" parent="4tWSjrluWotzXOF6bHqo-67" vertex="1">
          <mxGeometry x="618" width="40" height="20" as="geometry">
            <mxRectangle width="40" height="20" as="alternateBounds" />
          </mxGeometry>
        </mxCell>
        <mxCell id="4tWSjrluWotzXOF6bHqo-112" value="201" style="shape=partialRectangle;html=1;whiteSpace=wrap;connectable=0;strokeColor=#666666;overflow=hidden;fillColor=#f5f5f5;top=0;left=0;bottom=0;right=0;pointerEvents=1;fontColor=#333333;" parent="4tWSjrluWotzXOF6bHqo-67" vertex="1">
          <mxGeometry x="658" width="58" height="20" as="geometry">
            <mxRectangle width="58" height="20" as="alternateBounds" />
          </mxGeometry>
        </mxCell>
        <mxCell id="4tWSjrluWotzXOF6bHqo-73" value="" style="shape=tableRow;horizontal=0;startSize=0;swimlaneHead=0;swimlaneBody=0;strokeColor=inherit;top=0;left=0;bottom=0;right=0;collapsible=0;dropTarget=0;fillColor=none;points=[[0,0.5],[1,0.5]];portConstraint=eastwest;" parent="4tWSjrluWotzXOF6bHqo-60" vertex="1">
          <mxGeometry y="60" width="716.0377358490566" height="22" as="geometry" />
        </mxCell>
        <mxCell id="4tWSjrluWotzXOF6bHqo-127" value="AllowPSRemoting" style="shape=partialRectangle;html=1;whiteSpace=wrap;connectable=0;strokeColor=#666666;overflow=hidden;fillColor=#f5f5f5;top=0;left=0;bottom=0;right=0;pointerEvents=1;fontColor=#333333;" parent="4tWSjrluWotzXOF6bHqo-73" vertex="1">
          <mxGeometry width="118" height="22" as="geometry">
            <mxRectangle width="118" height="22" as="alternateBounds" />
          </mxGeometry>
        </mxCell>
        <mxCell id="4tWSjrluWotzXOF6bHqo-74" value="AzureActiveDirectoryDomainServices" style="shape=partialRectangle;html=1;whiteSpace=wrap;connectable=0;strokeColor=#666666;overflow=hidden;fillColor=#f5f5f5;top=0;left=0;bottom=0;right=0;pointerEvents=1;fontColor=#333333;" parent="4tWSjrluWotzXOF6bHqo-73" vertex="1">
          <mxGeometry x="118" width="210" height="22" as="geometry">
            <mxRectangle width="210" height="22" as="alternateBounds" />
          </mxGeometry>
        </mxCell>
        <mxCell id="4tWSjrluWotzXOF6bHqo-75" value="Any" style="shape=partialRectangle;html=1;whiteSpace=wrap;connectable=0;strokeColor=#666666;overflow=hidden;fillColor=#f5f5f5;top=0;left=0;bottom=0;right=0;pointerEvents=1;fontColor=#333333;" parent="4tWSjrluWotzXOF6bHqo-73" vertex="1">
          <mxGeometry x="328" width="180" height="22" as="geometry">
            <mxRectangle width="180" height="22" as="alternateBounds" />
          </mxGeometry>
        </mxCell>
        <mxCell id="4tWSjrluWotzXOF6bHqo-76" value="TCP" style="shape=partialRectangle;html=1;whiteSpace=wrap;connectable=0;strokeColor=#666666;overflow=hidden;fillColor=#f5f5f5;top=0;left=0;bottom=0;right=0;pointerEvents=1;fontColor=#333333;" parent="4tWSjrluWotzXOF6bHqo-73" vertex="1">
          <mxGeometry x="508" width="50" height="22" as="geometry">
            <mxRectangle width="50" height="22" as="alternateBounds" />
          </mxGeometry>
        </mxCell>
        <mxCell id="4tWSjrluWotzXOF6bHqo-77" value="5986" style="shape=partialRectangle;html=1;whiteSpace=wrap;connectable=0;strokeColor=#666666;overflow=hidden;fillColor=#f5f5f5;top=0;left=0;bottom=0;right=0;pointerEvents=1;fontColor=#333333;" parent="4tWSjrluWotzXOF6bHqo-73" vertex="1">
          <mxGeometry x="558" width="60" height="22" as="geometry">
            <mxRectangle width="60" height="22" as="alternateBounds" />
          </mxGeometry>
        </mxCell>
        <mxCell id="4tWSjrluWotzXOF6bHqo-78" value="allow" style="shape=partialRectangle;html=1;whiteSpace=wrap;connectable=0;strokeColor=#666666;overflow=hidden;fillColor=#f5f5f5;top=0;left=0;bottom=0;right=0;pointerEvents=1;fontColor=#333333;" parent="4tWSjrluWotzXOF6bHqo-73" vertex="1">
          <mxGeometry x="618" width="40" height="22" as="geometry">
            <mxRectangle width="40" height="22" as="alternateBounds" />
          </mxGeometry>
        </mxCell>
        <mxCell id="4tWSjrluWotzXOF6bHqo-113" value="301" style="shape=partialRectangle;html=1;whiteSpace=wrap;connectable=0;strokeColor=#666666;overflow=hidden;fillColor=#f5f5f5;top=0;left=0;bottom=0;right=0;pointerEvents=1;fontColor=#333333;" parent="4tWSjrluWotzXOF6bHqo-73" vertex="1">
          <mxGeometry x="658" width="58" height="22" as="geometry">
            <mxRectangle width="58" height="22" as="alternateBounds" />
          </mxGeometry>
        </mxCell>
        <mxCell id="4tWSjrluWotzXOF6bHqo-129" value="" style="endArrow=classic;html=1;rounded=0;entryX=0.932;entryY=0.5;entryDx=0;entryDy=0;entryPerimeter=0;fillColor=#ffe6cc;strokeColor=#ffe6cc;exitX=1;exitY=0.5;exitDx=0;exitDy=0;" parent="1" source="4tWSjrluWotzXOF6bHqo-59" edge="1">
          <mxGeometry width="50" height="50" relative="1" as="geometry">
            <mxPoint x="639.93" y="227.3" as="sourcePoint" />
            <mxPoint x="419.9963199999999" y="227.3" as="targetPoint" />
            <Array as="points">
              <mxPoint x="600" y="670" />
              <mxPoint x="600" y="227" />
            </Array>
          </mxGeometry>
        </mxCell>
        <mxCell id="4tWSjrluWotzXOF6bHqo-130" value="rome-hostpool" style="image;aspect=fixed;html=1;points=[];align=left;fontSize=12;image=img/lib/azure2/compute/Host_Pools.svg;labelPosition=right;verticalLabelPosition=middle;verticalAlign=middle;" parent="1" vertex="1">
          <mxGeometry x="24.740000000000002" y="260" width="30" height="30" as="geometry" />
        </mxCell>
        <mxCell id="4tWSjrluWotzXOF6bHqo-131" value="milan-hostpool" style="image;aspect=fixed;html=1;points=[];align=left;fontSize=12;image=img/lib/azure2/compute/Host_Pools.svg;labelPosition=right;verticalLabelPosition=middle;verticalAlign=middle;" parent="1" vertex="1">
          <mxGeometry x="20" y="400" width="30" height="30" as="geometry" />
        </mxCell>
        <mxCell id="4tWSjrluWotzXOF6bHqo-132" value="avdstorage000000" style="image;aspect=fixed;html=1;points=[];align=center;fontSize=12;image=img/lib/azure2/general/Storage_Azure_Files.svg;" parent="1" vertex="1">
          <mxGeometry x="130.76999999999998" y="540" width="49.23" height="40" as="geometry" />
        </mxCell>
        <mxCell id="4tWSjrluWotzXOF6bHqo-133" value="" style="rounded=1;whiteSpace=wrap;html=1;fillColor=none;strokeColor=#7ea6e0;dashed=1;" parent="1" vertex="1">
          <mxGeometry x="106.37" y="10" width="193.63" height="220" as="geometry" />
        </mxCell>
        <mxCell id="4tWSjrluWotzXOF6bHqo-134" value="rome-hostpool" style="image;aspect=fixed;html=1;points=[];align=left;fontSize=12;image=img/lib/azure2/compute/Host_Pools.svg;labelPosition=right;verticalLabelPosition=middle;verticalAlign=middle;" parent="1" vertex="1">
          <mxGeometry x="-92.52000000000001" y="760" width="30" height="30" as="geometry" />
        </mxCell>
        <mxCell id="4tWSjrluWotzXOF6bHqo-135" value="milan-hostpool" style="image;aspect=fixed;html=1;points=[];align=left;fontSize=12;image=img/lib/azure2/compute/Host_Pools.svg;labelPosition=right;verticalLabelPosition=middle;verticalAlign=middle;" parent="1" vertex="1">
          <mxGeometry x="-97.26" y="900" width="30" height="30" as="geometry" />
        </mxCell>
        <mxCell id="4tWSjrluWotzXOF6bHqo-136" value="Roma-desktop" style="image;aspect=fixed;html=1;points=[];align=center;fontSize=12;image=img/lib/azure2/compute/Application_Group.svg;" parent="1" vertex="1">
          <mxGeometry x="-30" y="800" width="30" height="30" as="geometry" />
        </mxCell>
        <mxCell id="4tWSjrluWotzXOF6bHqo-137" value="Milano-Desktop" style="image;aspect=fixed;html=1;points=[];align=center;fontSize=12;image=img/lib/azure2/compute/Application_Group.svg;" parent="1" vertex="1">
          <mxGeometry x="-30" y="940" width="30" height="30" as="geometry" />
        </mxCell>
        <mxCell id="4tWSjrluWotzXOF6bHqo-138" value="Roma-remoteapp" style="image;aspect=fixed;html=1;points=[];align=center;fontSize=12;image=img/lib/azure2/compute/Application_Group.svg;" parent="1" vertex="1">
          <mxGeometry x="130.77" y="800" width="30" height="30" as="geometry" />
        </mxCell>
        <mxCell id="4tWSjrluWotzXOF6bHqo-139" value="Milano-Remoteapp" style="image;aspect=fixed;html=1;points=[];align=center;fontSize=12;image=img/lib/azure2/compute/Application_Group.svg;" parent="1" vertex="1">
          <mxGeometry x="130" y="940" width="30" height="30" as="geometry" />
        </mxCell>
      </root>
    </mxGraphModel>
  </diagram>
</mxfile>
